<?xml version="1.0" standalone="no"?>
<!DOCTYPE svg PUBLIC "-//W3C//DTD SVG 20010904//EN"
 "http://www.w3.org/TR/2001/REC-SVG-20010904/DTD/svg10.dtd">
<svg version="1.0" xmlns="http://www.w3.org/2000/svg"
 width="200.000000pt" height="200.000000pt" viewBox="0 0 200.000000 200.000000"
 preserveAspectRatio="xMidYMid meet">

<g transform="translate(0.000000,200.000000) scale(0.100000,-0.100000)"
fill="#000000" stroke="none">
<path d="M971 1862 c-67 -85 -92 -198 -55 -251 48 -68 163 -57 194 20 25 60
-14 181 -80 244 l-27 26 -32 -39z"/>
<path d="M1421 1649 c-92 -114 -140 -266 -112 -352 17 -51 79 -104 133 -112
83 -13 165 41 188 123 22 85 -36 252 -123 348 l-43 47 -43 -54z"/>
<path d="M1082 1328 c-33 -53 -38 -102 -13 -127 41 -41 91 -14 91 48 0 32 -36
111 -51 111 -4 0 -16 -15 -27 -32z"/>
<path d="M380 1203 c0 -113 58 -248 143 -333 94 -94 205 -140 339 -140 l78 0
0 -315 0 -315 45 0 45 0 0 159 0 158 113 5 c134 6 199 28 290 96 112 86 187
232 187 364 l0 60 -167 -4 c-158 -3 -172 -5 -225 -30 -75 -35 -122 -71 -164
-126 l-34 -45 0 74 c0 185 -88 326 -248 402 -66 31 -70 32 -234 35 l-168 4 0
-49z"/>
</g>
</svg>
